# xmcd
#
# Track frame offsets:
#	150
#	15838
#	34608
#	57583
#	84418
#	115334
#	137646
#	157338
#	175743
#	191573
#	211443
#	234748
#	258760
#	285012
#	303149
#	324314
#	343376
#
# Disc length: 4778 seconds
#
# Revision: 0
# Processed by: cddbd v1.5.2PL0 Copyright (c) Steve Scherf et al.
# Submitted via: EasyCDDAExtractor 8.2.3.1
#
DISCID=e512a811
DTITLE=Michael KATON - Boogie Is My Business CD-2
DYEAR=2006
DGENRE=Blues
TTITLE0=No More Whiskey
TTITLE1=American McMojo
TTITLE2=Get On the Boogie Train
TTITLE3=It I Have a Heart Attack Baby
TTITLE4=Luv A Dawg
TTITLE5=The Man From Hell
TTITLE6=Bad Machine
TTITLE7=Roadtested
TTITLE8=She's All Mine
TTITLE9=Yeah...But We Can Boogie
TTITLE10=Whiskey Hill
TTITLE11=Rock Me 'Till the Hounds Come Home
TTITLE12=Wide Ride
TTITLE13=Rock'n'Roll, Whiskey, Blood'n'Gut's
TTITLE14=Cruise-Nite USA
TTITLE15=Walkin' Blues
TTITLE16=Motor Cycle Blues
EXTD=
EXTT0=
EXTT1=
EXTT2=
EXTT3=
EXTT4=
EXTT5=
EXTT6=
EXTT7=
EXTT8=
EXTT9=
EXTT10=
EXTT11=
EXTT12=
EXTT13=
EXTT14=
EXTT15=
EXTT16=
PLAYORDER=
